# xmcd CD database generated by RipIT
#
# Track frame offsets:
# 150
# 19798
# 37350
# 54831
# 74346
# 90991
# 108190
# 119672
# 133573
# 151593
# 168542
# 190229
#
# Disc length: 2766 seconds
#
# Revision: 1
# Processed by: cddbd v1.5.2PL0 Copyright (c) Steve Scherf et al.
# Submitted via: RipIT 3.9.0 www.suwald.com/ripit/ripit.html on 2016-04-17 at 07:28
#
DISCID=9a0acc0c
DTITLE=Kasey Chambers - Bittersweet
DYEAR=2015
DGENRE=Pop
TTITLE0=Oh Grace
TTITLE1=Is God Real
TTITLE2=Wheelbarrow
TTITLE3=I Would Do
TTITLE4=Hell of a Way to Go
TTITLE5=House on a Hill
TTITLE6=Stalker
TTITLE7=Heaven or Hell
TTITLE8=Bittersweet
TTITLE9=Too Late To Save Me
TTITLE10=Christmas Day
TTITLE11=I'm Alive
EXTD=
EXTT0=
EXTT1=
EXTT2=
EXTT3=
EXTT4=
EXTT5=
EXTT6=
EXTT7=
EXTT8=
EXTT9=
EXTT10=
EXTT11=
PLAYORDER=
